<?xml version="1.0" encoding="UTF-8" standalone="no"?>
<svg width="44px" height="45px" viewBox="0 0 44 45" version="1.1" xmlns="http://www.w3.org/2000/svg" xmlns:xlink="http://www.w3.org/1999/xlink">
    <!-- Generator: Sketch 3.6.1 (26313) - http://www.bohemiancoding.com/sketch -->
    <title>Group 13</title>
    <desc>Created with Sketch.</desc>
    <defs></defs>
    <g id="Page-1" stroke="none" stroke-width="1" fill="none" fill-rule="evenodd">
        <g id="Group-12" transform="translate(22.000000, 22.500000) scale(1, -1) translate(-22.000000, -22.500000) ">
            <g id="Group-13">
                <path d="M22.0400391,12.7475586 L43.9604492,1.31005859 L43.9604492,20.9040527 C43.9604492,20.9040527 31.9620196,27.5462516 25.9628047,30.3281665 C25.3729896,30.6016716 22.0400391,31.083252 22.0400391,31.083252 L22.0400391,12.7475586 Z" id="Path-3" fill="#9D996A" transform="translate(33.000244, 16.196655) scale(-1, 1) translate(-33.000244, -16.196655) "></path>
                <rect id="Rectangle-1937" fill="#CECA94" x="0" y="30" width="4" height="4"></rect>
                <rect id="Rectangle-1937-Copy" fill="#CECA94" x="4" y="32" width="4" height="4"></rect>
                <rect id="Rectangle-1937-Copy-2" fill="#CECA94" x="8" y="34" width="4" height="4"></rect>
                <rect id="Rectangle-1937-Copy-3" fill="#CECA94" x="12" y="36" width="4" height="4"></rect>
                <rect id="Rectangle-1937-Copy-17" fill="#CECA94" x="16" y="34" width="4" height="4"></rect>
                <rect id="Rectangle-1937-Copy-4" fill="#CECA94" x="16" y="38" width="4" height="4"></rect>
                <rect id="Rectangle-1937-Copy-21" fill="#CECA94" x="0" y="10" width="4" height="4"></rect>
                <path d="M0.0773925781,1.28369141 L0.0773925781,21.1203613 L22.1164551,32.5061035 L22.1164551,12.921875 L0.0773925781,1.28369141 Z" id="Path-2" fill="#B4AF7B" transform="translate(11.096924, 16.894897) scale(-1, 1) translate(-11.096924, -16.894897) "></path>
                <rect id="Rectangle-1937-Copy-11" fill="#CECA94" x="0" y="30" width="4" height="4"></rect>
                <rect id="Rectangle-1937-Copy-10" fill="#CECA94" x="4" y="28" width="4" height="4"></rect>
                <rect id="Rectangle-1937-Copy-9" fill="#CECA94" x="8" y="26" width="4" height="4"></rect>
                <rect id="Rectangle-1937-Copy-8" fill="#CECA94" x="12" y="24" width="4" height="4"></rect>
                <rect id="Rectangle-1937-Copy-7" fill="#CECA94" x="16" y="22" width="4" height="4"></rect>
                <rect id="Rectangle-1937-Copy-16" fill="#CECA94" x="40" y="30" width="4" height="4"></rect>
                <rect id="Rectangle-1937-Copy-15" fill="#CECA94" x="36" y="28" width="4" height="4"></rect>
                <rect id="Rectangle-1937-Copy-14" fill="#CECA94" x="32" y="26" width="4" height="4"></rect>
                <rect id="Rectangle-1937-Copy-13" fill="#CECA94" x="28" y="24" width="4" height="4"></rect>
                <rect id="Rectangle-1937-Copy-12" fill="#CECA94" x="24" y="22" width="4" height="4"></rect>
                <rect id="Rectangle-1937-Copy-6" fill="#CECA94" x="20" y="20" width="4" height="4"></rect>
                <rect id="Rectangle-1937-Copy-32" fill="#B4AF7B" x="0" y="10" width="4" height="4"></rect>
                <rect id="Rectangle-1937-Copy-31" fill="#B4AF7B" x="4" y="8" width="4" height="4"></rect>
                <rect id="Rectangle-1937-Copy-30" fill="#B4AF7B" x="8" y="6" width="4" height="4"></rect>
                <rect id="Rectangle-1937-Copy-29" fill="#B4AF7B" x="12" y="4" width="4" height="4"></rect>
                <rect id="Rectangle-1937-Copy-28" fill="#B4AF7B" x="16" y="2" width="4" height="4"></rect>
                <rect id="Rectangle-1937-Copy-27" fill="#CECA94" x="40" y="10" width="4" height="4"></rect>
                <rect id="Rectangle-1937-Copy-26" fill="#9D996A" x="36" y="8" width="4" height="4"></rect>
                <rect id="Rectangle-1937-Copy-25" fill="#9D996A" x="32" y="6" width="4" height="4"></rect>
                <rect id="Rectangle-1937-Copy-24" fill="#9D996A" x="28" y="4" width="4" height="4"></rect>
                <rect id="Rectangle-1937-Copy-23" fill="#9D996A" x="24" y="2" width="4" height="4"></rect>
                <rect id="Rectangle-1937-Copy-22" fill="#B4AF7B" x="20" y="0" width="4" height="4"></rect>
                <rect id="Rectangle-1937" fill="#CECA94" x="40" y="30" width="4" height="4"></rect>
                <rect id="Rectangle-1937-Copy" fill="#CECA94" x="36" y="32" width="4" height="4"></rect>
                <rect id="Rectangle-1937-Copy-2" fill="#CECA94" x="32" y="34" width="4" height="4"></rect>
                <rect id="Rectangle-1937-Copy-3" fill="#CECA94" x="28" y="36" width="4" height="4"></rect>
                <rect id="Rectangle-1937-Copy-4" fill="#CECA94" x="24" y="38" width="4" height="4"></rect>
                <rect id="Rectangle-1937-Copy-38" fill="#9D996A" x="40" y="10" width="4" height="4"></rect>
                <rect id="Rectangle-1937-Copy-5" fill="#CECA94" x="20" y="41" width="4" height="4"></rect>
                <rect id="Rectangle-1937-Copy-33" fill="#CECA94" x="20" y="24" width="4" height="4"></rect>
                <path d="M4,32.40625 L21.6339456,22.21875 L40.7109375,32.421875 L22.4201501,42.234375 L4,32.40625 Z" id="Path-1" fill="#CEC994"></path>
                <rect id="Rectangle-1972" fill="#EEEEEE" x="12" y="36" width="4" height="4"></rect>
                <rect id="Rectangle-1972-Copy" fill="#EEEEEE" x="16" y="34" width="4" height="4"></rect>
                <rect id="Rectangle-1972-Copy-2" fill="#EEEEEE" x="20" y="32" width="4" height="4"></rect>
                <rect id="Rectangle-1972-Copy-3" fill="#EEEEEE" x="24" y="30" width="4" height="4"></rect>
                <rect id="Rectangle-1972-Copy-4" fill="#EEEEEE" x="28" y="28" width="4" height="4"></rect>
                <rect id="Rectangle-1972-Copy-44" fill="#EEEEEE" x="32" y="26" width="4" height="4"></rect>
                <rect id="Rectangle-1972-Copy-6" fill="#D8D8D8" x="32" y="22" width="4" height="4"></rect>
                <rect id="Rectangle-1972-Copy-7" fill="#D8D8D8" x="32" y="18" width="4" height="4"></rect>
                <rect id="Rectangle-1972-Copy-9" fill="#D8D8D8" x="32" y="10" width="4" height="4"></rect>
                <rect id="Rectangle-1972-Copy-8" fill="#D8D8D8" x="32" y="6" width="4" height="4"></rect>
            </g>
        </g>
    </g>
</svg>