<?xml version="1.0" encoding="UTF-8" standalone="no"?>
<svg width="44px" height="74px" viewBox="0 0 44 74" version="1.1" xmlns="http://www.w3.org/2000/svg" xmlns:xlink="http://www.w3.org/1999/xlink">
    <!-- Generator: Sketch 3.6.1 (26313) - http://www.bohemiancoding.com/sketch -->
    <title>Group 18</title>
    <desc>Created with Sketch.</desc>
    <defs></defs>
    <g id="Page-1" stroke="none" stroke-width="1" fill="none" fill-rule="evenodd">
        <g id="Group-18" fill="#8B572A">
            <rect id="Rectangle-1937" x="0" y="34" width="4" height="4"></rect>
            <rect id="Rectangle-1937-Copy" x="4" y="32" width="4" height="4"></rect>
            <rect id="Rectangle-1937-Copy-2" x="8" y="30" width="4" height="4"></rect>
            <rect id="Rectangle-1937-Copy-3" x="12" y="28" width="4" height="4"></rect>
            <rect id="Rectangle-1937-Copy-4" x="16" y="26" width="4" height="4"></rect>
            <rect id="Rectangle-1937-Copy-11" x="0" y="35" width="4" height="26"></rect>
            <rect id="Rectangle-1937-Copy-10" x="4" y="40" width="4" height="4"></rect>
            <rect id="Rectangle-1937-Copy-9" x="8" y="42" width="4" height="4"></rect>
            <rect id="Rectangle-1937-Copy-8" x="12" y="44" width="4" height="4"></rect>
            <rect id="Rectangle-1937-Copy-7" x="16" y="46" width="4" height="4"></rect>
            <rect id="Rectangle-1937-Copy-16" x="40" y="38" width="4" height="26"></rect>
            <rect id="Rectangle-1937-Copy-15" x="36" y="40" width="4" height="4"></rect>
            <rect id="Rectangle-1937-Copy-14" x="32" y="42" width="4" height="4"></rect>
            <rect id="Rectangle-1937-Copy-13" x="28" y="44" width="4" height="4"></rect>
            <rect id="Rectangle-1937-Copy-12" x="24" y="46" width="4" height="4"></rect>
            <rect id="Rectangle-1937-Copy-6" x="20" y="48" width="4" height="26"></rect>
            <rect id="Rectangle-1937" x="40" y="8.22680664" width="4" height="29.7731934"></rect>
            <rect id="Rectangle-1937-Copy" x="36" y="32" width="4" height="4"></rect>
            <rect id="Rectangle-1937-Copy-2" x="32" y="30" width="4" height="4"></rect>
            <rect id="Rectangle-1937-Copy-3" x="28" y="28" width="4" height="4"></rect>
            <rect id="Rectangle-1937-Copy-4" x="24" y="26" width="4" height="4"></rect>
            <rect id="Rectangle-1937-Copy-18" x="24" y="26" width="4" height="4"></rect>
            <rect id="Rectangle-1937-Copy-19" x="24" y="1" width="4" height="4"></rect>
            <rect id="Rectangle-1937-Copy-20" x="28" y="3" width="4" height="4"></rect>
            <rect id="Rectangle-1937-Copy-34" x="32" y="5" width="4" height="4"></rect>
            <rect id="Rectangle-1937-Copy-35" x="36" y="7" width="4" height="4"></rect>
            <rect id="Rectangle-1937-Copy-40" x="24" y="11" width="4" height="4"></rect>
            <rect id="Rectangle-1937-Copy-39" x="28" y="13" width="4" height="4"></rect>
            <rect id="Rectangle-1937-Copy-37" x="32" y="15" width="4" height="4"></rect>
            <rect id="Rectangle-1937-Copy-36" x="36" y="17" width="4" height="4"></rect>
            <rect id="Rectangle-1937-Copy-5" x="20" y="0" width="4" height="28"></rect>
            <rect id="Rectangle-1937-Copy-33" x="20" y="44" width="4" height="4"></rect>
            <path d="M2.57861328,35.4482422 L22.5400391,25.6357422 L41.3730469,35.5839844 L41.2583008,40.9135742 L22.4521484,48.3764648 L2.20751953,40.7451172 L2.57861328,35.4482422 Z" id="Path-6"></path>
        </g>
    </g>
</svg>