<?xml version="1.0" encoding="UTF-8" standalone="no"?>
<svg width="1000px" height="600px" viewBox="0 0 1000 600" version="1.1" xmlns="http://www.w3.org/2000/svg" xmlns:xlink="http://www.w3.org/1999/xlink">
    <!-- Generator: Sketch 3.6.1 (26313) - http://www.bohemiancoding.com/sketch -->
    <title>Artboard 1</title>
    <desc>Created with Sketch.</desc>
    <defs>
        <linearGradient x1="50%" y1="0%" x2="50%" y2="100%" id="linearGradient-1">
            <stop stop-color="#FFFFFF" stop-opacity="0.8" offset="0%"></stop>
            <stop stop-color="#FFFFFF" stop-opacity="0.8" offset="1.51760057%"></stop>
            <stop stop-color="#FFFFFF" stop-opacity="0.8" offset="72.7765805%"></stop>
            <stop stop-color="#FFFFFF" offset="100%"></stop>
        </linearGradient>
    </defs>
    <g id="Page-1" stroke="none" stroke-width="1" fill="none" fill-rule="evenodd">
        <g id="Artboard-1">
            <g id="Group" transform="translate(-2.000000, -34.000000)">
                <g id="Group-2">
                    <rect id="Rectangle-27" stroke="#979797" fill="#91B8E6" x="0" y="0" width="1001" height="358"></rect>
                    <rect id="Rectangle-1" fill="#4A4A4A" x="1" y="552" width="1001" height="81"></rect>
                    <rect id="Rectangle-1-Copy" fill="#88837E" x="0" y="436.566406" width="1001" height="119.956164"></rect>
                    <rect id="Rectangle-1-Copy-2" fill="#D1CFD2" x="0" y="236" width="157" height="199"></rect>
                    <rect id="Rectangle-1-Copy-3" fill="#6C6B6C" x="149" y="159" width="267" height="276"></rect>
                    <rect id="Rectangle-1-Copy-4" fill="#CBC7CC" x="387" y="236" width="157" height="199"></rect>
                    <rect id="Rectangle-1-Copy-5" fill="#D5D0D7" x="532" y="159" width="167" height="276"></rect>
                    <rect id="Rectangle-1-Copy-7" fill="#DBD2DE" x="915" y="205" width="86" height="230"></rect>
                    <rect id="Rectangle-9" fill="#FFFFFF" x="24" y="269" width="26" height="43"></rect>
                    <rect id="Rectangle-9-Copy" fill="#FFFFFF" x="70" y="336" width="26" height="43"></rect>
                    <rect id="Rectangle-9-Copy-2" fill="#FFFFFF" x="106" y="269" width="26" height="43"></rect>
                    <rect id="Rectangle-9-Copy-3" fill="#FFFFFF" x="179" y="205" width="26" height="43"></rect>
                    <rect id="Rectangle-9-Copy-4" fill="#FFFFFF" x="218" y="205" width="26" height="43"></rect>
                    <rect id="Rectangle-9-Copy-5" fill="#FFFFFF" x="310" y="297" width="26" height="43"></rect>
                    <rect id="Rectangle-9-Copy-6" fill="#FFFFFF" x="268" y="297" width="26" height="43"></rect>
                    <rect id="Rectangle-9-Copy-7" fill="#FFFFFF" x="416" y="254" width="26" height="43"></rect>
                    <rect id="Rectangle-9-Copy-8" fill="#FFFFFF" x="466" y="291" width="26" height="43"></rect>
                    <rect id="Rectangle-9-Copy-9" fill="#FFFFFF" x="416" y="336" width="26" height="43"></rect>
                    <rect id="Rectangle-9-Copy-10" fill="#FFFFFF" x="565" y="193" width="26" height="43"></rect>
                    <rect id="Rectangle-9-Copy-11" fill="#FFFFFF" x="598" y="269" width="26" height="43"></rect>
                    <rect id="Rectangle-9-Copy-12" fill="#FFFFFF" x="631" y="193" width="26" height="43"></rect>
                    <rect id="Rectangle-9-Copy-16" fill="#FFFFFF" x="932" y="234" width="26" height="43"></rect>
                    <rect id="Rectangle-9-Copy-17" fill="#FFFFFF" x="958" y="304" width="26" height="43"></rect>
                    <rect id="Rectangle-1-Copy-6" fill="#4B4A4C" x="677" y="297" width="267" height="138"></rect>
                    <rect id="Rectangle-9-Copy-13" fill="#FFFFFF" x="701.680672" y="319" width="29.1680672" height="43"></rect>
                    <rect id="Rectangle-9-Copy-14" fill="#FFFFFF" x="757.773109" y="319" width="29.1680672" height="43"></rect>
                    <rect id="Rectangle-9-Copy-15" fill="#FFFFFF" x="810.5" y="320" width="29.1680672" height="43"></rect>
                    <path d="M107,440.598546 L73,557.208815" id="Path-1" stroke="#AFAFAF" stroke-width="6"></path>
                    <path d="M231,439.590511 L203,557.208815" id="Path-1-Copy" stroke="#AFAFAF" stroke-width="6"></path>
                    <path d="M363,438.582476 L343,557.208815" id="Path-1-Copy-2" stroke="#AFAFAF" stroke-width="6"></path>
                    <path d="M483,438.145399 L483,557.208815" id="Path-1-Copy-3" stroke="#AFAFAF" stroke-width="6"></path>
                    <path d="M606,438.582476 L623,557.208815" id="Path-1-Copy-4" stroke="#AFAFAF" stroke-width="6"></path>
                    <path d="M740,440.598546 L773,557.208815" id="Path-1-Copy-5" stroke="#AFAFAF" stroke-width="6"></path>
                    <path d="M880,440.598546 L923,557.208815" id="Path-1-Copy-6" stroke="#AFAFAF" stroke-width="6"></path>
                    <rect id="Rectangle-28" fill="url(#linearGradient-1)" x="1" y="0" width="1001" height="435"></rect>
                </g>
            </g>
        </g>
    </g>
</svg>