<?xml version="1.0" encoding="UTF-8" standalone="no"?>
<svg width="58px" height="44px" viewBox="0 0 58 44" version="1.1" xmlns="http://www.w3.org/2000/svg" xmlns:xlink="http://www.w3.org/1999/xlink">
    <!-- Generator: Sketch 3.6.1 (26313) - http://www.bohemiancoding.com/sketch -->
    <title>Group 16</title>
    <desc>Created with Sketch.</desc>
    <defs></defs>
    <g id="Page-1" stroke="none" stroke-width="1" fill="none" fill-rule="evenodd">
        <g id="Group-16">
            <path d="M29.515625,1.36328125 L56.0493164,16.0004883 L49.1459961,29.1455078 L45.6118164,29.921875 L21.4755859,17.7685547 L28.2763672,5.37207031 L29.515625,1.36328125 Z" id="Path-7" fill="#EEEEEE"></path>
            <path d="M24.0791016,18.0947266 L46.6708984,30.6582031 L45.3193359,34.5341797 L29.5917969,42.2036133 L3.50146484,28.0439453 L14.1191406,21.8774414 L24.0791016,18.0947266 Z" id="Path-7-Copy" fill="#4A4A4A"></path>
            <rect id="Rectangle-1972-Copy-38" fill="#9B9B9B" x="24" y="18" width="4" height="4"></rect>
            <rect id="Rectangle-1972-Copy-39" fill="#9B9B9B" x="28" y="20" width="4" height="4"></rect>
            <rect id="Rectangle-1972-Copy-40" fill="#9B9B9B" x="32" y="22" width="4" height="4"></rect>
            <rect id="Rectangle-1972-Copy-41" fill="#9B9B9B" x="36" y="24" width="4" height="4"></rect>
            <rect id="Rectangle-1972-Copy-42" fill="#9B9B9B" x="40" y="26" width="4" height="4"></rect>
            <rect id="Rectangle-1972-Copy-43" fill="#9B9B9B" x="44" y="28" width="4" height="4"></rect>
            <rect id="Rectangle-1972-Copy-45" fill="#9B9B9B" x="44" y="32" width="4" height="4"></rect>
            <rect id="Rectangle-1972-Copy-46" fill="#9B9B9B" x="40" y="34" width="4" height="4"></rect>
            <rect id="Rectangle-1972-Copy-47" fill="#9B9B9B" x="36" y="36" width="4" height="4"></rect>
            <rect id="Rectangle-1972-Copy-48" fill="#9B9B9B" x="32" y="38" width="4" height="4"></rect>
            <rect id="Rectangle-1972-Copy-49" fill="#9B9B9B" x="28" y="40" width="4" height="4"></rect>
            <rect id="Rectangle-1972-Copy-50" fill="#9B9B9B" x="24" y="38" width="4" height="4"></rect>
            <rect id="Rectangle-1972-Copy-51" fill="#9B9B9B" x="20" y="36" width="4" height="4"></rect>
            <rect id="Rectangle-1972-Copy-52" fill="#9B9B9B" x="16" y="34" width="4" height="4"></rect>
            <rect id="Rectangle-1972-Copy-53" fill="#9B9B9B" x="12" y="32" width="4" height="4"></rect>
            <rect id="Rectangle-1972-Copy-54" fill="#9B9B9B" x="8" y="30" width="4" height="4"></rect>
            <rect id="Rectangle-1972-Copy-55" fill="#9B9B9B" x="4" y="28" width="4" height="4"></rect>
            <rect id="Rectangle-1972-Copy-56" fill="#9B9B9B" x="0" y="26" width="4" height="4"></rect>
            <rect id="Rectangle-1972-Copy-57" fill="#9B9B9B" x="4" y="24" width="4" height="4"></rect>
            <rect id="Rectangle-1972-Copy-58" fill="#9B9B9B" x="8" y="22" width="4" height="4"></rect>
            <rect id="Rectangle-1972-Copy-59" fill="#9B9B9B" x="12" y="20" width="4" height="4"></rect>
            <rect id="Rectangle-1972-Copy-60" fill="#9B9B9B" x="16" y="18" width="4" height="4"></rect>
            <rect id="Rectangle-1972-Copy-76" fill="#000000" x="21" y="24" width="4" height="4"></rect>
            <rect id="Rectangle-1972-Copy-77" fill="#000000" x="25" y="32" width="4" height="4"></rect>
            <rect id="Rectangle-1972-Copy-78" fill="#000000" x="29" y="28" width="4" height="4"></rect>
            <rect id="Rectangle-1972-Copy-79" fill="#000000" x="16" y="28" width="4" height="4"></rect>
            <rect id="Rectangle-1972-Copy-61" fill="#9B9B9B" x="20" y="16" width="4" height="4"></rect>
            <rect id="Rectangle-1972-Copy-62" fill="#9B9B9B" x="22" y="12" width="4" height="4"></rect>
            <rect id="Rectangle-1972-Copy-63" fill="#9B9B9B" x="24" y="8" width="4" height="4"></rect>
            <rect id="Rectangle-1972-Copy-64" fill="#9B9B9B" x="26" y="4" width="4" height="4"></rect>
            <rect id="Rectangle-1972-Copy-65" fill="#9B9B9B" x="28" y="0" width="4" height="4"></rect>
            <rect id="Rectangle-1972-Copy-75" fill="#9B9B9B" x="48" y="26" width="4" height="4"></rect>
            <rect id="Rectangle-1972-Copy-74" fill="#9B9B9B" x="50" y="22" width="4" height="4"></rect>
            <rect id="Rectangle-1972-Copy-73" fill="#9B9B9B" x="52" y="18" width="4" height="4"></rect>
            <rect id="Rectangle-1972-Copy-72" fill="#9B9B9B" x="54" y="14" width="4" height="4"></rect>
            <rect id="Rectangle-1972-Copy-66" fill="#9B9B9B" x="32" y="2" width="4" height="4"></rect>
            <rect id="Rectangle-1972-Copy-67" fill="#9B9B9B" x="36" y="4" width="4" height="4"></rect>
            <rect id="Rectangle-1972-Copy-68" fill="#9B9B9B" x="40" y="6" width="4" height="4"></rect>
            <rect id="Rectangle-1972-Copy-69" fill="#9B9B9B" x="44" y="8" width="4" height="4"></rect>
            <rect id="Rectangle-1972-Copy-70" fill="#9B9B9B" x="48" y="10" width="4" height="4"></rect>
            <rect id="Rectangle-1972-Copy-71" fill="#9B9B9B" x="52" y="12" width="4" height="4"></rect>
        </g>
    </g>
</svg>