<?xml version="1.0" encoding="UTF-8" standalone="no"?>
<svg width="100px" height="55px" viewBox="0 0 100 55" version="1.1" xmlns="http://www.w3.org/2000/svg" xmlns:xlink="http://www.w3.org/1999/xlink">
    <!-- Generator: Sketch 3.6.1 (26313) - http://www.bohemiancoding.com/sketch -->
    <title>Group 10</title>
    <desc>Created with Sketch.</desc>
    <defs></defs>
    <g id="Page-1" stroke="none" stroke-width="1" fill="none" fill-rule="evenodd">
        <g id="Group-5" transform="translate(-47.000000, 0.000000)">
            <g id="Group-7">
                <g id="Group-8">
                    <g id="Group-9">
                        <g id="Group-10" transform="translate(40.000000, 0.000000)">
                            <rect id="Rectangle-1-Copy-127" fill="#38302D" x="8" y="1" width="13" height="4"></rect>
                            <rect id="Rectangle-1-Copy-126" fill="#38302D" x="12" y="0" width="8" height="1"></rect>
                            <rect id="Rectangle-1-Copy-125" fill="#675149" x="15" y="1" width="2" height="2"></rect>
                            <rect id="Rectangle-1-Copy-124" fill="#675149" x="10" y="2" width="2" height="2"></rect>
                            <rect id="Rectangle-1-Copy-123" fill="#38302D" x="7" y="5" width="7" height="4"></rect>
                            <rect id="Rectangle-1-Copy-122" fill="#F8C898" x="13" y="5" width="7" height="4"></rect>
                            <rect id="Rectangle-1-Copy-121" fill="#F8C898" x="11" y="9" width="10" height="5"></rect>
                            <rect id="Rectangle-1-Copy-120" fill="#F8C898" x="21" y="10" width="1" height="3"></rect>
                            <rect id="Rectangle-1-Copy-119" fill="#F8C898" x="10" y="13" width="9" height="4"></rect>
                            <rect id="Rectangle-1-Copy-118" fill="#F8C898" x="11" y="13" width="9" height="2"></rect>
                            <rect id="Rectangle-1-Copy-117" fill="#D0011B" x="10" y="20" width="7" height="4"></rect>
                            <rect id="Rectangle-1-Copy-116" fill="#D0011B" x="8" y="22" width="2" height="2"></rect>
                            <rect id="Rectangle-1-Copy-115" fill="#D0011B" x="17" y="22" width="2" height="2"></rect>
                            <rect id="Rectangle-1-Copy-114" fill="#D0011B" x="8" y="24" width="11" height="11"></rect>
                            <rect id="Rectangle-1-Copy-113" fill="#647E8C" x="12" y="38" width="6" height="3"></rect>
                            <rect id="Rectangle-1-Copy-112" fill="#647E8C" x="9" y="38" width="4" height="12"></rect>
                            <rect id="Rectangle-1-Copy-107" fill="#740412" x="12" y="25" width="5" height="1"></rect>
                            <rect id="Rectangle-1-Copy-106" fill="#647E8C" x="8" y="35" width="11" height="3"></rect>
                            <rect id="Rectangle-1-Copy-105" fill="#647E8C" x="9" y="38" width="3" height="2"></rect>
                            <rect id="Rectangle-1-Copy-104" fill="#647E8C" x="16" y="38" width="3" height="3"></rect>
                            <rect id="Rectangle-1-Copy-103" fill="#38302D" x="7" y="9" width="5" height="4"></rect>
                            <rect id="Rectangle-1-Copy-102" fill="#38302D" x="8" y="13" width="2" height="4"></rect>
                            <rect id="Rectangle-1-Copy-101" fill="#000000" x="17" y="8" width="2" height="2"></rect>
                            <rect id="Rectangle-1-Copy-100" fill="#F8C898" x="11" y="17" width="6" height="3"></rect>
                            <rect id="Rectangle-19-Copy-6" fill="#000000" x="8" y="33" width="11" height="2"></rect>
                            <rect id="Rectangle-1-Copy-97" fill="#740412" x="10" y="20" width="7" height="1"></rect>
                            <rect id="Rectangle-1-Copy-96" fill="#C7A078" x="10" y="13" width="1" height="4"></rect>
                            <rect id="Rectangle-1-Copy-95" fill="#C7A078" x="12" y="9" width="1" height="4"></rect>
                            <rect id="Rectangle-1-Copy-94" fill="#C7A078" x="11" y="16" width="1" height="4"></rect>
                            <rect id="Rectangle-1-Copy-93" fill="#C7A078" x="20" y="13" width="2" height="1"></rect>
                            <rect id="Rectangle-1-Copy-92" fill="#C7A078" x="13" y="5" width="1" height="5"></rect>
                            <rect id="Rectangle-1-Copy-91" fill="#C7A078" x="13" y="5" width="7" height="1"></rect>
                            <rect id="Rectangle-1-Copy-90" fill="#675149" x="11" y="5" width="2" height="2"></rect>
                            <rect id="Rectangle-1-Copy-89" fill="#675149" x="8" y="8" width="2" height="2"></rect>
                            <rect id="Rectangle-1-Copy-88" fill="#675149" x="19" y="2" width="2" height="2"></rect>
                            <rect id="Rectangle-1-Copy-75" fill="#38302D" x="90" y="1" width="13" height="4"></rect>
                            <rect id="Rectangle-1-Copy-74" fill="#38302D" x="93" y="0" width="8" height="1"></rect>
                            <rect id="Rectangle-1-Copy-73" fill="#675149" x="97" y="1" width="2" height="2"></rect>
                            <rect id="Rectangle-1-Copy-72" fill="#675149" x="92" y="2" width="2" height="2"></rect>
                            <rect id="Rectangle-1-Copy-71" fill="#38302D" x="89" y="5" width="7" height="4"></rect>
                            <rect id="Rectangle-1-Copy-70" fill="#F8C898" x="95" y="5" width="7" height="4"></rect>
                            <rect id="Rectangle-1-Copy-69" fill="#F8C898" x="93" y="9" width="10" height="5"></rect>
                            <rect id="Rectangle-1-Copy-68" fill="#F8C898" x="103" y="10" width="1" height="3"></rect>
                            <rect id="Rectangle-1-Copy-67" fill="#F8C898" x="92" y="13" width="9" height="4"></rect>
                            <rect id="Rectangle-1-Copy-66" fill="#F8C898" x="93" y="13" width="9" height="2"></rect>
                            <rect id="Rectangle-1-Copy-65" fill="#D0011B" x="92" y="20" width="7" height="4"></rect>
                            <rect id="Rectangle-1-Copy-64" fill="#D0011B" x="90" y="22" width="2" height="2"></rect>
                            <rect id="Rectangle-1-Copy-63" fill="#D0011B" x="99" y="22" width="2" height="2"></rect>
                            <rect id="Rectangle-1-Copy-62" fill="#D0011B" x="90" y="24" width="11" height="11"></rect>
                            <rect id="Rectangle-1-Copy-61" fill="#647E8C" x="96" y="38" width="5" height="16"></rect>
                            <rect id="Rectangle-1-Copy-60" fill="#647E8C" x="92" y="37" width="2" height="9"></rect>
                            <rect id="Rectangle-1-Copy-85" fill="#647E8C" x="92" y="37" width="3" height="8"></rect>
                            <rect id="Rectangle-1-Copy-77" fill="#647E8C" x="90" y="41" width="2" height="6"></rect>
                            <rect id="Rectangle-1-Copy-109" fill="#647E8C" x="16" y="40" width="2" height="3"></rect>
                            <rect id="Rectangle-1-Copy-111" fill="#647E8C" x="17" y="41" width="3" height="3"></rect>
                            <rect id="Rectangle-1-Copy-130" fill="#647E8C" x="18" y="39" width="2" height="2"></rect>
                            <rect id="Rectangle-1-Copy-131" fill="#647E8C" x="20" y="41" width="1" height="1"></rect>
                            <rect id="Rectangle-1-Copy-132" fill="#647E8C" x="20" y="42" width="1" height="1"></rect>
                            <rect id="Rectangle-1-Copy-134" fill="#647E8C" x="16" y="44" width="6" height="1"></rect>
                            <rect id="Rectangle-1-Copy-135" fill="#647E8C" x="17" y="43" width="5" height="1"></rect>
                            <rect id="Rectangle-1-Copy-136" fill="#647E8C" x="15" y="45" width="6" height="1"></rect>
                            <rect id="Rectangle-1-Copy-137" fill="#647E8C" x="14" y="46" width="6" height="1"></rect>
                            <rect id="Rectangle-1-Copy-138" fill="#647E8C" x="15" y="47" width="4" height="1"></rect>
                            <rect id="Rectangle-1-Copy-139" fill="#647E8C" x="16" y="48" width="2" height="1"></rect>
                            <rect id="Rectangle-1-Copy-76" fill="#647E8C" x="88" y="43" width="2" height="5"></rect>
                            <rect id="Rectangle-1-Copy-57" fill="#740412" x="92" y="25" width="5" height="1"></rect>
                            <rect id="Rectangle-1-Copy-56" fill="#647E8C" x="91" y="35" width="10" height="3"></rect>
                            <rect id="Rectangle-1-Copy-55" fill="#647E8C" x="92" y="38" width="2" height="2"></rect>
                            <rect id="Rectangle-1-Copy-80" fill="#647E8C" x="90" y="35" width="2" height="2"></rect>
                            <rect id="Rectangle-1-Copy-54" fill="#647E8C" x="98" y="38" width="3" height="2"></rect>
                            <rect id="Rectangle-1-Copy-53" fill="#38302D" x="89" y="9" width="5" height="4"></rect>
                            <rect id="Rectangle-1-Copy-52" fill="#38302D" x="90" y="13" width="2" height="4"></rect>
                            <rect id="Rectangle-1-Copy-51" fill="#000000" x="99" y="8" width="2" height="2"></rect>
                            <rect id="Rectangle-1-Copy-50" fill="#F8C898" x="93" y="17" width="6" height="3"></rect>
                            <rect id="Rectangle-19-Copy-12" fill="#8B572A" x="96" y="50" width="5" height="5"></rect>
                            <rect id="Rectangle-19-Copy-11" fill="#000000" x="101" y="52" width="2" height="3"></rect>
                            <rect id="Rectangle-19-Copy-10" fill="#8B572A" x="101" y="52" width="2" height="3"></rect>
                            <rect id="Rectangle-19-Copy-9" fill="#8B572A" x="103" y="53" width="2" height="2"></rect>
                            <rect id="Rectangle-19-Copy-16" fill="#8B572A" x="83" y="43" width="4" height="6"></rect>
                            <rect id="Rectangle-19-Copy-15" fill="#8B572A" x="84" y="49" width="2" height="3"></rect>
                            <rect id="Rectangle-19-Copy-14" fill="#8B572A" x="83" y="51" width="2" height="2"></rect>
                            <rect id="Rectangle-19-Copy-8" fill="#000000" x="90" y="33" width="11" height="2"></rect>
                            <rect id="Rectangle-1-Copy-49" fill="#F8C898" x="13" y="26" width="3" height="3"></rect>
                            <rect id="Rectangle-1-Copy-81" fill="#F8C898" x="12" y="28" width="3" height="3"></rect>
                            <rect id="Rectangle-1-Copy-82" fill="#F8C898" x="11" y="31" width="3" height="3"></rect>
                            <rect id="Rectangle-1-Copy-83" fill="#F8C898" x="10" y="34" width="3" height="4"></rect>
                            <rect id="Rectangle-1-Copy-48" fill="#F8C898" x="13" y="36" width="2" height="2"></rect>
                            <rect id="Rectangle-19-Copy-7" fill="#59381B" x="96" y="50" width="5" height="1"></rect>
                            <rect id="Rectangle-19-Copy-18" fill="#59381B" x="87" y="43" width="1" height="6"></rect>
                            <rect id="Rectangle-19-Copy-19" fill="#59381B" x="83" y="43" width="1" height="10"></rect>
                            <rect id="Rectangle-19-Copy-17" fill="#59381B" x="96" y="54" width="9" height="1"></rect>
                            <rect id="Rectangle-19-Copy-22" fill="#8B572A" x="9" y="50" width="4" height="4"></rect>
                            <rect id="Rectangle-19-Copy-25" fill="#8B572A" x="8" y="51" width="1" height="2"></rect>
                            <rect id="Rectangle-19-Copy-27" fill="#8B572A" x="13" y="47" width="2" height="2"></rect>
                            <rect id="Rectangle-19-Copy-28" fill="#8B572A" x="15" y="48" width="1" height="2"></rect>
                            <rect id="Rectangle-19-Copy-38" fill="#8B572A" x="12" y="47" width="1" height="1"></rect>
                            <rect id="Rectangle-19-Copy-36" fill="#8B572A" x="12" y="48" width="1" height="1"></rect>
                            <rect id="Rectangle-19-Copy-29" fill="#8B572A" x="16" y="49" width="1" height="2"></rect>
                            <rect id="Rectangle-19-Copy-30" fill="#8B572A" x="17" y="49" width="1" height="2"></rect>
                            <rect id="Rectangle-19-Copy-31" fill="#8B572A" x="17" y="51" width="2" height="1"></rect>
                            <rect id="Rectangle-19-Copy-23" fill="#8B572A" x="15" y="53" width="2" height="2"></rect>
                            <rect id="Rectangle-19-Copy-21" fill="#8B572A" x="13" y="52" width="2" height="3"></rect>
                            <rect id="Rectangle-19-Copy-20" fill="#59381B" x="11" y="54" width="6" height="1"></rect>
                            <rect id="Rectangle-19-Copy-24" fill="#59381B" x="8" y="53" width="4" height="1"></rect>
                            <rect id="Rectangle-19-Copy-26" fill="#59381B" x="9" y="50" width="4" height="1"></rect>
                            <rect id="Rectangle-19-Copy-32" fill="#59381B" x="13" y="49" width="2" height="1"></rect>
                            <rect id="Rectangle-19-Copy-33" fill="#59381B" x="15" y="50" width="1" height="1"></rect>
                            <rect id="Rectangle-19-Copy-37" fill="#59381B" x="12" y="48" width="1" height="1"></rect>
                            <rect id="Rectangle-19-Copy-34" fill="#59381B" x="16" y="51" width="1" height="1"></rect>
                            <rect id="Rectangle-19-Copy-35" fill="#59381B" x="17" y="52" width="2" height="1"></rect>
                            <rect id="Rectangle-1-Copy-47" fill="#740412" x="92" y="20" width="7" height="1"></rect>
                            <rect id="Rectangle-1-Copy-46" fill="#C7A078" x="92" y="13" width="1" height="4"></rect>
                            <rect id="Rectangle-1-Copy-45" fill="#C7A078" x="94" y="9" width="1" height="4"></rect>
                            <rect id="Rectangle-1-Copy-44" fill="#C7A078" x="93" y="16" width="1" height="4"></rect>
                            <rect id="Rectangle-1-Copy-43" fill="#C7A078" x="102" y="13" width="2" height="1"></rect>
                            <rect id="Rectangle-1-Copy-42" fill="#C7A078" x="95" y="5" width="1" height="5"></rect>
                            <rect id="Rectangle-1-Copy-41" fill="#C7A078" x="95" y="5" width="7" height="1"></rect>
                            <rect id="Rectangle-1-Copy-40" fill="#675149" x="93" y="5" width="2" height="2"></rect>
                            <rect id="Rectangle-1-Copy-39" fill="#675149" x="90" y="8" width="2" height="2"></rect>
                            <rect id="Rectangle-1-Copy-38" fill="#675149" x="101" y="2" width="2" height="2"></rect>
                            <rect id="Rectangle-1-Copy-59" fill="#3A4D57" x="95" y="38" width="1" height="7"></rect>
                            <rect id="Rectangle-1-Copy-110" fill="#3A4D57" x="15" y="41" width="1" height="1"></rect>
                            <rect id="Rectangle-1-Copy-128" fill="#3A4D57" x="16" y="42" width="1" height="1"></rect>
                            <rect id="Rectangle-1-Copy-133" fill="#3A4D57" x="17" y="43" width="1" height="1"></rect>
                            <rect id="Rectangle-1-Copy-141" fill="#3A4D57" x="16" y="44" width="1" height="1"></rect>
                            <rect id="Rectangle-1-Copy-129" fill="#3A4D57" x="15" y="45" width="1" height="1"></rect>
                            <rect id="Rectangle-1-Copy-140" fill="#3A4D57" x="14" y="46" width="1" height="1"></rect>
                            <rect id="Rectangle-1-Copy-108" fill="#F8C898" x="93" y="26" width="3" height="4"></rect>
                            <rect id="Rectangle-1-Copy-159" fill="#F8C898" x="96" y="29" width="3" height="3"></rect>
                            <rect id="Rectangle-1-Copy-158" fill="#F8C898" x="99" y="30" width="3" height="3"></rect>
                            <rect id="Rectangle-1-Copy-157" fill="#F8C898" x="102" y="29" width="3" height="3"></rect>
                            <rect id="Rectangle-1-Copy-156" fill="#F8C898" x="105" y="28" width="2" height="2"></rect>
                            <rect id="Rectangle-1-Copy-155" fill="#F8C898" x="95" y="30" width="1" height="1"></rect>
                            <rect id="Rectangle-1-Copy-154" fill="#F8C898" x="96" y="28" width="1" height="1"></rect>
                            <rect id="Rectangle-1-Copy-153" fill="#F8C898" x="98" y="32" width="1" height="1"></rect>
                            <rect id="Rectangle-19-Copy-44" fill="#59381B" x="43" y="48" width="1" height="1"></rect>
                            <rect id="Rectangle-19-Copy-55" fill="#8B572A" x="42" y="48" width="2" height="3"></rect>
                            <rect id="Rectangle-19-Copy-54" fill="#8B572A" x="44" y="49" width="1" height="3"></rect>
                            <rect id="Rectangle-19-Copy-53" fill="#8B572A" x="43" y="49" width="1" height="1"></rect>
                            <rect id="Rectangle-19-Copy-52" fill="#8B572A" x="43" y="50" width="1" height="1"></rect>
                            <rect id="Rectangle-19-Copy-51" fill="#8B572A" x="45" y="50" width="1" height="3"></rect>
                            <rect id="Rectangle-19-Copy-50" fill="#8B572A" x="46" y="50" width="1" height="3"></rect>
                            <rect id="Rectangle-19-Copy-57" fill="#8B572A" x="63" y="50" width="1" height="3"></rect>
                            <rect id="Rectangle-19-Copy-59" fill="#8B572A" x="64" y="49" width="1" height="3"></rect>
                            <rect id="Rectangle-19-Copy-49" fill="#8B572A" x="46" y="53" width="2" height="1"></rect>
                            <rect id="Rectangle-19-Copy-43" fill="#59381B" x="42" y="51" width="2" height="1"></rect>
                            <rect id="Rectangle-19-Copy-42" fill="#59381B" x="44" y="52" width="1" height="1"></rect>
                            <rect id="Rectangle-19-Copy-62" fill="#59381B" x="67" y="49" width="1" height="1"></rect>
                            <rect id="Rectangle-19-Copy-70" fill="#59381B" x="68" y="48" width="1" height="1"></rect>
                            <rect id="Rectangle-19-Copy-74" fill="#59381B" x="69" y="47" width="1" height="1"></rect>
                            <rect id="Rectangle-19-Copy-63" fill="#59381B" x="66" y="50" width="1" height="1"></rect>
                            <rect id="Rectangle-19-Copy-64" fill="#59381B" x="65" y="51" width="1" height="1"></rect>
                            <rect id="Rectangle-19-Copy-65" fill="#59381B" x="64" y="52" width="1" height="1"></rect>
                            <rect id="Rectangle-19-Copy-66" fill="#59381B" x="63" y="53" width="1" height="1"></rect>
                            <rect id="Rectangle-19-Copy-71" fill="#59381B" x="63" y="49" width="1" height="1"></rect>
                            <rect id="Rectangle-19-Copy-41" fill="#59381B" x="43" y="50" width="1" height="1"></rect>
                            <rect id="Rectangle-19-Copy-45" fill="#59381B" x="43" y="48" width="1" height="1"></rect>
                            <rect id="Rectangle-19-Copy-40" fill="#59381B" x="45" y="53" width="1" height="1"></rect>
                            <rect id="Rectangle-19-Copy-39" fill="#59381B" x="46" y="54" width="2" height="1"></rect>
                            <rect id="Rectangle-1-Copy-207" fill="#38302D" x="48" y="1" width="13" height="4"></rect>
                            <rect id="Rectangle-1-Copy-206" fill="#38302D" x="51" y="0" width="8" height="1"></rect>
                            <rect id="Rectangle-1-Copy-205" fill="#675149" x="55" y="1" width="2" height="2"></rect>
                            <rect id="Rectangle-1-Copy-204" fill="#675149" x="50" y="2" width="2" height="2"></rect>
                            <rect id="Rectangle-1-Copy-203" fill="#38302D" x="47" y="5" width="7" height="4"></rect>
                            <rect id="Rectangle-1-Copy-202" fill="#F8C898" x="53" y="5" width="7" height="4"></rect>
                            <rect id="Rectangle-1-Copy-201" fill="#F8C898" x="51" y="9" width="10" height="5"></rect>
                            <rect id="Rectangle-1-Copy-200" fill="#F8C898" x="61" y="10" width="1" height="3"></rect>
                            <rect id="Rectangle-1-Copy-199" fill="#F8C898" x="50" y="13" width="9" height="4"></rect>
                            <rect id="Rectangle-1-Copy-198" fill="#F8C898" x="51" y="13" width="9" height="2"></rect>
                            <rect id="Rectangle-1-Copy-197" fill="#D0011B" x="50" y="20" width="7" height="4"></rect>
                            <rect id="Rectangle-1-Copy-196" fill="#D0011B" x="48" y="22" width="2" height="2"></rect>
                            <rect id="Rectangle-1-Copy-195" fill="#D0011B" x="57" y="22" width="2" height="2"></rect>
                            <rect id="Rectangle-1-Copy-194" fill="#D0011B" x="48" y="24" width="11" height="11"></rect>
                            <rect id="Rectangle-1-Copy-193" fill="#647E8C" x="52" y="38" width="6" height="3"></rect>
                            <rect id="Rectangle-1-Copy-190" fill="#740412" x="52" y="25" width="5" height="1"></rect>
                            <rect id="Rectangle-1-Copy-189" fill="#647E8C" x="48" y="35" width="11" height="3"></rect>
                            <rect id="Rectangle-1-Copy-188" fill="#647E8C" x="49" y="38" width="3" height="3"></rect>
                            <rect id="Rectangle-1-Copy-187" fill="#647E8C" x="56" y="38" width="3" height="3"></rect>
                            <rect id="Rectangle-1-Copy-186" fill="#38302D" x="47" y="9" width="5" height="4"></rect>
                            <rect id="Rectangle-1-Copy-185" fill="#38302D" x="48" y="13" width="2" height="4"></rect>
                            <rect id="Rectangle-1-Copy-184" fill="#000000" x="57" y="8" width="2" height="2"></rect>
                            <rect id="Rectangle-1-Copy-183" fill="#F8C898" x="51" y="17" width="6" height="3"></rect>
                            <rect id="Rectangle-19-Copy-58" fill="#000000" x="48" y="33" width="11" height="2"></rect>
                            <rect id="Rectangle-1-Copy-180" fill="#740412" x="50" y="20" width="7" height="1"></rect>
                            <rect id="Rectangle-1-Copy-179" fill="#C7A078" x="50" y="13" width="1" height="4"></rect>
                            <rect id="Rectangle-1-Copy-178" fill="#C7A078" x="52" y="9" width="1" height="4"></rect>
                            <rect id="Rectangle-1-Copy-177" fill="#C7A078" x="51" y="16" width="1" height="4"></rect>
                            <rect id="Rectangle-1-Copy-176" fill="#C7A078" x="60" y="13" width="2" height="1"></rect>
                            <rect id="Rectangle-1-Copy-175" fill="#C7A078" x="53" y="5" width="1" height="5"></rect>
                            <rect id="Rectangle-1-Copy-174" fill="#C7A078" x="53" y="5" width="7" height="1"></rect>
                            <rect id="Rectangle-1-Copy-173" fill="#675149" x="51" y="5" width="2" height="2"></rect>
                            <rect id="Rectangle-1-Copy-172" fill="#675149" x="48" y="8" width="2" height="2"></rect>
                            <rect id="Rectangle-1-Copy-98" fill="#675149" x="59" y="2" width="2" height="2"></rect>
                            <rect id="Rectangle-1-Copy-171" fill="#647E8C" x="48" y="41" width="6" height="2"></rect>
                            <rect id="Rectangle-1-Copy-170" fill="#647E8C" x="48" y="43" width="5" height="3"></rect>
                            <rect id="Rectangle-1-Copy-169" fill="#647E8C" x="57" y="39" width="3" height="2"></rect>
                            <rect id="Rectangle-1-Copy-168" fill="#647E8C" x="50" y="43" width="1" height="1"></rect>
                            <rect id="Rectangle-1-Copy-167" fill="#647E8C" x="51" y="44" width="1" height="2"></rect>
                            <rect id="Rectangle-1-Copy-192" fill="#647E8C" x="48" y="38" width="1" height="1"></rect>
                            <rect id="Rectangle-1-Copy-166" fill="#647E8C" x="45" y="46" width="6" height="1"></rect>
                            <rect id="Rectangle-1-Copy-165" fill="#647E8C" x="46" y="45" width="5" height="1"></rect>
                            <rect id="Rectangle-1-Copy-208" fill="#647E8C" x="47" y="44" width="1" height="1"></rect>
                            <rect id="Rectangle-1-Copy-209" fill="#647E8C" x="50" y="41" width="1" height="1"></rect>
                            <rect id="Rectangle-1-Copy-210" fill="#647E8C" x="55" y="41" width="6" height="1"></rect>
                            <rect id="Rectangle-1-Copy-211" fill="#647E8C" x="56" y="42" width="6" height="1"></rect>
                            <rect id="Rectangle-1-Copy-212" fill="#647E8C" x="57" y="43" width="6" height="1"></rect>
                            <rect id="Rectangle-1-Copy-213" fill="#647E8C" x="58" y="44" width="6" height="1"></rect>
                            <rect id="Rectangle-1-Copy-214" fill="#647E8C" x="59" y="45" width="6" height="1"></rect>
                            <rect id="Rectangle-1-Copy-215" fill="#647E8C" x="60" y="46" width="6" height="1"></rect>
                            <rect id="Rectangle-1-Copy-216" fill="#647E8C" x="61" y="47" width="5" height="1"></rect>
                            <rect id="Rectangle-1-Copy-217" fill="#647E8C" x="62" y="48" width="5" height="1"></rect>
                            <rect id="Rectangle-1-Copy-164" fill="#647E8C" x="44" y="47" width="6" height="1"></rect>
                            <rect id="Rectangle-1-Copy-163" fill="#647E8C" x="44" y="48" width="5" height="1"></rect>
                            <rect id="Rectangle-19-Copy-46" fill="#59381B" x="43" y="47" width="1" height="1"></rect>
                            <rect id="Rectangle-19-Copy-47" fill="#59381B" x="44" y="48" width="1" height="1"></rect>
                            <rect id="Rectangle-19-Copy-48" fill="#59381B" x="45" y="49" width="1" height="1"></rect>
                            <rect id="Rectangle-19-Copy-56" fill="#59381B" x="46" y="49" width="1" height="1"></rect>
                            <rect id="Rectangle-19-Copy-60" fill="#8B572A" x="65" y="48" width="1" height="3"></rect>
                            <rect id="Rectangle-19-Copy-61" fill="#8B572A" x="66" y="47" width="1" height="2"></rect>
                            <rect id="Rectangle-19-Copy-67" fill="#8B572A" x="66" y="46" width="1" height="4"></rect>
                            <rect id="Rectangle-19-Copy-68" fill="#8B572A" x="67" y="46" width="1" height="3"></rect>
                            <rect id="Rectangle-19-Copy-69" fill="#8B572A" x="68" y="46" width="1" height="2"></rect>
                            <rect id="Rectangle-19-Copy-75" fill="#8B572A" x="69" y="46" width="1" height="1"></rect>
                            <rect id="Rectangle-19-Copy-76" fill="#8B572A" x="68" y="45" width="2" height="1"></rect>
                            <rect id="Rectangle-19-Copy-72" fill="#59381B" x="65" y="47" width="1" height="1"></rect>
                            <rect id="Rectangle-19-Copy-73" fill="#59381B" x="64" y="48" width="1" height="1"></rect>
                            <rect id="Rectangle-1-Copy-152" fill="#F8C898" x="53" y="26" width="3" height="3"></rect>
                            <rect id="Rectangle-1-Copy-151" fill="#F8C898" x="54" y="28" width="3" height="3"></rect>
                            <rect id="Rectangle-1-Copy-150" fill="#F8C898" x="55" y="31" width="3" height="3"></rect>
                            <rect id="Rectangle-1-Copy-149" fill="#F8C898" x="56" y="34" width="3" height="4"></rect>
                            <rect id="Rectangle-1-Copy-58" fill="#F8C898" x="59" y="36" width="2" height="2"></rect>
                            <rect id="Rectangle-279" x="0" y="0" width="120" height="55"></rect>
                        </g>
                    </g>
                </g>
            </g>
        </g>
    </g>
</svg>