<?xml version="1.0" encoding="UTF-8" standalone="no"?>
<svg width="51px" height="39px" viewBox="0 0 51 39" version="1.1" xmlns="http://www.w3.org/2000/svg" xmlns:xlink="http://www.w3.org/1999/xlink">
    <!-- Generator: Sketch 3.6.1 (26313) - http://www.bohemiancoding.com/sketch -->
    <title>Group 15</title>
    <desc>Created with Sketch.</desc>
    <defs></defs>
    <g id="Page-1" stroke="none" stroke-width="1" fill="none" fill-rule="evenodd">
        <g id="Group-15">
            <path d="M1.84130859,9.01806641 L17.1469727,1.46337891 L25.027832,7.22705078 L24.8974609,13.8544922 L13.0825195,13.762207 L2.97021484,17.5395508 L1.84130859,9.01806641 Z" id="Path-4" fill="#F6A623"></path>
            <rect id="Rectangle-1972-Copy-17" fill="#F6A623" x="15" y="0" width="4" height="4"></rect>
            <rect id="Rectangle-1972-Copy-36" fill="#F6A623" x="15" y="0" width="4" height="4"></rect>
            <rect id="Rectangle-1972-Copy-22" fill="#F6A623" x="11" y="1" width="4" height="4"></rect>
            <rect id="Rectangle-1972-Copy-23" fill="#F6A623" x="8" y="3" width="4" height="4"></rect>
            <rect id="Rectangle-1972-Copy-24" fill="#F6A623" x="4" y="5" width="4" height="4"></rect>
            <rect id="Rectangle-1972-Copy-28" fill="#D89220" x="8" y="13" width="4" height="4"></rect>
            <rect id="Rectangle-1972-Copy-27" fill="#D89220" x="4" y="15" width="4" height="4"></rect>
            <rect id="Rectangle-1972-Copy-25" fill="#F6A623" x="0" y="7" width="4" height="4"></rect>
            <rect id="Rectangle-1972-Copy-26" fill="#F6A623" x="0" y="11" width="4" height="8"></rect>
            <rect id="Rectangle-1972-Copy-35" fill="#F6A623" x="35" y="1" width="4" height="4"></rect>
            <rect id="Rectangle-1972-Copy-34" fill="#F6A623" x="39" y="3" width="4" height="4"></rect>
            <rect id="Rectangle-1972-Copy-33" fill="#F6A623" x="43" y="5" width="4" height="4"></rect>
            <rect id="Rectangle-1972-Copy-32" fill="#F6A623" x="39" y="13" width="4" height="4"></rect>
            <rect id="Rectangle-1972-Copy-31" fill="#F6A623" x="43" y="15" width="4" height="4"></rect>
            <rect id="Rectangle-1972-Copy-30" fill="#F6A623" x="47" y="7" width="4" height="4"></rect>
            <rect id="Rectangle-1972-Copy-29" fill="#F6A623" x="47" y="11" width="4" height="8"></rect>
            <rect id="Rectangle-1972-Copy-18" fill="#F6A623" x="19" y="2" width="4" height="4"></rect>
            <rect id="Rectangle-1972-Copy-19" fill="#F6A623" x="23" y="5" width="4" height="4"></rect>
            <rect id="Rectangle-1972-Copy-20" fill="#F6A623" x="27" y="2" width="4" height="4"></rect>
            <rect id="Rectangle-1972-Copy-21" fill="#F6A623" x="31" y="0" width="4" height="4"></rect>
            <rect id="Rectangle-1991" fill="#F6A623" x="12" y="9" width="27" height="30"></rect>
            <path d="M24.5620117,6.71289062 L33.9731445,1.94189453 L49.1640625,9.35595703 L48.5073242,17.1132812 L38.1411133,14.5244141 L24.9472656,9.35742188 L24.5620117,6.71289062 Z" id="Path-5" fill="#F6A623"></path>
            <rect id="Rectangle-1972-Copy-37" fill="#D8921F" x="12" y="13" width="4" height="26"></rect>
        </g>
    </g>
</svg>