<?xml version="1.0" encoding="UTF-8" standalone="no"?>
<svg width="61px" height="45px" viewBox="0 0 61 45" version="1.1" xmlns="http://www.w3.org/2000/svg" xmlns:xlink="http://www.w3.org/1999/xlink">
    <!-- Generator: Sketch 3.6.1 (26313) - http://www.bohemiancoding.com/sketch -->
    <title>Untitled</title>
    <desc>Created with Sketch.</desc>
    <defs></defs>
    <g id="Page-1" stroke="none" stroke-width="1" fill="none" fill-rule="evenodd">
        <rect id="Rectangle-62-Copy-70" fill="#D8D8D8" x="9" y="38" width="48" height="2"></rect>
        <rect id="Rectangle-62-Copy-92" fill="#9B9B9B" x="0" y="32" width="41" height="2"></rect>
        <rect id="Rectangle-62-Copy-65" fill="#F6A623" x="41" y="13" width="12" height="22"></rect>
        <rect id="Rectangle-62-Copy-66" fill="#F6A623" x="48" y="24" width="12" height="11"></rect>
        <rect id="Rectangle-61" fill="#EEEEEE" x="3" y="2" width="34" height="30"></rect>
        <g id="wheel" transform="translate(9.000000, 30.000000)">
            <rect id="Rectangle-14" fill="#9B9B9B" x="2" y="2" width="6" height="6"></rect>
            <rect id="Rectangle-1" fill="#000000" x="8" y="5" width="2" height="2"></rect>
            <rect id="Rectangle-1-Copy-4" fill="#000000" x="8" y="3" width="2" height="2"></rect>
            <rect id="Rectangle-1-Copy-8" fill="#000000" x="7" y="1" width="2" height="2"></rect>
            <rect id="Rectangle-1-Copy-12" fill="#000000" x="4" y="4" width="2" height="2"></rect>
            <rect id="Rectangle-1-Copy-9" fill="#000000" x="5" y="0" width="2" height="2"></rect>
            <rect id="Rectangle-1-Copy-10" fill="#000000" x="3" y="0" width="2" height="2"></rect>
            <rect id="Rectangle-1-Copy-11" fill="#000000" x="1" y="1" width="2" height="2"></rect>
            <rect id="Rectangle-1-Copy" fill="#000000" x="5" y="8" width="2" height="2"></rect>
            <rect id="Rectangle-1-Copy-2" fill="#000000" x="0" y="3" width="2" height="2"></rect>
            <rect id="Rectangle-1-Copy-3" fill="#000000" x="0" y="5" width="2" height="2"></rect>
            <rect id="Rectangle-1-Copy-5" fill="#000000" x="1" y="7" width="2" height="2"></rect>
            <rect id="Rectangle-1-Copy-6" fill="#000000" x="3" y="8" width="2" height="2"></rect>
            <rect id="Rectangle-1-Copy-7" fill="#000000" x="7" y="7" width="2" height="2"></rect>
        </g>
        <g id="wheel-copy" transform="translate(23.000000, 30.000000)">
            <rect id="Rectangle-14" fill="#9B9B9B" x="2" y="2" width="6" height="6"></rect>
            <rect id="Rectangle-1" fill="#000000" x="8" y="5" width="2" height="2"></rect>
            <rect id="Rectangle-1-Copy-4" fill="#000000" x="8" y="3" width="2" height="2"></rect>
            <rect id="Rectangle-1-Copy-8" fill="#000000" x="7" y="1" width="2" height="2"></rect>
            <rect id="Rectangle-1-Copy-12" fill="#000000" x="4" y="4" width="2" height="2"></rect>
            <rect id="Rectangle-1-Copy-9" fill="#000000" x="5" y="0" width="2" height="2"></rect>
            <rect id="Rectangle-1-Copy-10" fill="#000000" x="3" y="0" width="2" height="2"></rect>
            <rect id="Rectangle-1-Copy-11" fill="#000000" x="1" y="1" width="2" height="2"></rect>
            <rect id="Rectangle-1-Copy" fill="#000000" x="5" y="8" width="2" height="2"></rect>
            <rect id="Rectangle-1-Copy-2" fill="#000000" x="0" y="3" width="2" height="2"></rect>
            <rect id="Rectangle-1-Copy-3" fill="#000000" x="0" y="5" width="2" height="2"></rect>
            <rect id="Rectangle-1-Copy-5" fill="#000000" x="1" y="7" width="2" height="2"></rect>
            <rect id="Rectangle-1-Copy-6" fill="#000000" x="3" y="8" width="2" height="2"></rect>
            <rect id="Rectangle-1-Copy-7" fill="#000000" x="7" y="7" width="2" height="2"></rect>
        </g>
        <rect id="Rectangle-1-Copy-13" fill="#D8D8D8" x="2" y="0" width="35" height="2"></rect>
        <rect id="Rectangle-1-Copy-28" fill="#D8D8D8" x="1" y="1" width="2" height="31"></rect>
        <rect id="Rectangle-1-Copy-29" fill="#D8D8D8" x="37" y="1" width="2" height="31"></rect>
        <rect id="Rectangle-62" fill="#D8D8D8" x="3" y="2" width="34" height="3"></rect>
        <rect id="Rectangle-62-Copy" fill="#D8D8D8" x="5" y="5" width="2" height="2"></rect>
        <rect id="Rectangle-62-Copy-2" fill="#D8D8D8" x="9" y="5" width="2" height="2"></rect>
        <rect id="Rectangle-62-Copy-3" fill="#D8D8D8" x="14" y="5" width="2" height="2"></rect>
        <rect id="Rectangle-62-Copy-24" fill="#D8D8D8" x="14" y="7" width="2" height="2"></rect>
        <rect id="Rectangle-62-Copy-4" fill="#D8D8D8" x="16" y="5" width="2" height="2"></rect>
        <rect id="Rectangle-62-Copy-5" fill="#D8D8D8" x="18" y="5" width="2" height="2"></rect>
        <rect id="Rectangle-62-Copy-6" fill="#D8D8D8" x="23" y="5" width="2" height="2"></rect>
        <rect id="Rectangle-62-Copy-7" fill="#D8D8D8" x="27" y="5" width="2" height="2"></rect>
        <rect id="Rectangle-62-Copy-8" fill="#D8D8D8" x="30" y="5" width="2" height="2"></rect>
        <rect id="Rectangle-62-Copy-9" fill="#D8D8D8" x="32" y="7" width="2" height="2"></rect>
        <rect id="Rectangle-62-Copy-10" fill="#D8D8D8" x="30" y="9" width="2" height="2"></rect>
        <rect id="Rectangle-62-Copy-11" fill="#D8D8D8" x="27" y="8" width="2" height="2"></rect>
        <rect id="Rectangle-62-Copy-12" fill="#D8D8D8" x="23" y="11" width="2" height="2"></rect>
        <rect id="Rectangle-62-Copy-26" fill="#D8D8D8" x="23" y="11" width="2" height="2"></rect>
        <rect id="Rectangle-62-Copy-13" fill="#D8D8D8" x="23" y="7" width="2" height="2"></rect>
        <rect id="Rectangle-62-Copy-25" fill="#D8D8D8" x="23" y="7" width="2" height="2"></rect>
        <rect id="Rectangle-62-Copy-14" fill="#D8D8D8" x="19" y="9" width="2" height="2"></rect>
        <rect id="Rectangle-62-Copy-22" fill="#D8D8D8" x="28" y="20" width="2" height="2"></rect>
        <rect id="Rectangle-62-Copy-23" fill="#D8D8D8" x="32" y="11" width="2" height="2"></rect>
        <rect id="Rectangle-62-Copy-27" fill="#3F93BB" x="44" y="16" width="6" height="8"></rect>
        <rect id="Rectangle-62-Copy-55" fill="#3F93BB" x="52" y="16" width="2" height="2"></rect>
        <rect id="Rectangle-62-Copy-61" fill="#D0011B" x="0" y="28" width="2" height="2"></rect>
        <rect id="Rectangle-62-Copy-56" fill="#3F93BB" x="54" y="16" width="2" height="2"></rect>
        <rect id="Rectangle-62-Copy-63" fill="#F6A623" x="53" y="14" width="2" height="2"></rect>
        <rect id="Rectangle-62-Copy-64" fill="#F6A623" x="41" y="13" width="12" height="2"></rect>
        <rect id="Rectangle-62-Copy-57" fill="#3F93BB" x="56" y="17" width="2" height="2"></rect>
        <rect id="Rectangle-62-Copy-67" fill="#3F93BB" x="56" y="17" width="2" height="2"></rect>
        <rect id="Rectangle-62-Copy-68" fill="#D38F1F" x="41" y="13" width="2" height="22"></rect>
        <rect id="Rectangle-62-Copy-69" fill="#D38F1F" x="41" y="33" width="19" height="2"></rect>
        <rect id="Rectangle-62-Copy-58" fill="#3F93BB" x="57" y="19" width="2" height="2"></rect>
        <rect id="Rectangle-62-Copy-59" fill="#3F93BB" x="58" y="21" width="2" height="3"></rect>
        <rect id="Rectangle-62-Copy-62" fill="#F8E81C" x="59" y="26" width="2" height="3"></rect>
        <rect id="Rectangle-62-Copy-60" fill="#3F93BB" x="52" y="18" width="6" height="6"></rect>
        <rect id="Rectangle-62-Copy-15" fill="#D8D8D8" x="16" y="7" width="2" height="2"></rect>
        <rect id="Rectangle-62-Copy-16" fill="#D8D8D8" x="14" y="10" width="2" height="2"></rect>
        <rect id="Rectangle-62-Copy-17" fill="#D8D8D8" x="11" y="8" width="2" height="2"></rect>
        <rect id="Rectangle-62-Copy-18" fill="#D8D8D8" x="9" y="10" width="2" height="2"></rect>
        <rect id="Rectangle-62-Copy-19" fill="#D8D8D8" x="7" y="12" width="2" height="2"></rect>
        <rect id="Rectangle-62-Copy-20" fill="#D8D8D8" x="5" y="9" width="2" height="2"></rect>
        <rect id="Rectangle-62-Copy-21" fill="#D8D8D8" x="8" y="18" width="2" height="2"></rect>
        <rect id="Rectangle-62-Copy-54" fill="#D8D8D8" x="13" y="20" width="2" height="2"></rect>
        <rect id="Rectangle-62-Copy-53" fill="#D8D8D8" x="4" y="22" width="2" height="2"></rect>
        <rect id="Rectangle-62-Copy-52" fill="#D8D8D8" x="6" y="24" width="2" height="2"></rect>
        <rect id="Rectangle-62-Copy-51" fill="#D8D8D8" x="15" y="22" width="2" height="2"></rect>
        <rect id="Rectangle-62-Copy-50" fill="#D8D8D8" x="9" y="23" width="2" height="2"></rect>
        <rect id="Rectangle-62-Copy-49" fill="#D8D8D8" x="21" y="23" width="2" height="2"></rect>
        <rect id="Rectangle-62-Copy-48" fill="#D8D8D8" x="34" y="24" width="2" height="2"></rect>
        <rect id="Rectangle-62-Copy-47" fill="#D8D8D8" x="26" y="24" width="2" height="2"></rect>
        <rect id="Rectangle-62-Copy-46" fill="#D8D8D8" x="34" y="28" width="2" height="2"></rect>
        <rect id="Rectangle-62-Copy-45" fill="#D8D8D8" x="30" y="28" width="2" height="2"></rect>
        <rect id="Rectangle-62-Copy-44" fill="#D8D8D8" x="26" y="28" width="2" height="2"></rect>
        <rect id="Rectangle-62-Copy-43" fill="#D8D8D8" x="32" y="26" width="2" height="2"></rect>
        <rect id="Rectangle-62-Copy-42" fill="#D8D8D8" x="24" y="26" width="2" height="2"></rect>
        <rect id="Rectangle-62-Copy-41" fill="#D8D8D8" x="20" y="30" width="2" height="2"></rect>
        <rect id="Rectangle-62-Copy-40" fill="#D8D8D8" x="19" y="21" width="2" height="2"></rect>
        <rect id="Rectangle-62-Copy-39" fill="#D8D8D8" x="24" y="22" width="2" height="2"></rect>
        <rect id="Rectangle-62-Copy-38" fill="#D8D8D8" x="13" y="28" width="2" height="2"></rect>
        <rect id="Rectangle-62-Copy-37" fill="#D8D8D8" x="19" y="25" width="2" height="2"></rect>
        <rect id="Rectangle-62-Copy-36" fill="#D8D8D8" x="28" y="26" width="2" height="2"></rect>
        <rect id="Rectangle-62-Copy-71" fill="#D8D8D8" x="11" y="41" width="2" height="2"></rect>
        <rect id="Rectangle-62-Copy-72" fill="#D8D8D8" x="11" y="41" width="2" height="2"></rect>
        <rect id="Rectangle-62-Copy-73" fill="#D8D8D8" x="15" y="40" width="2" height="2"></rect>
        <rect id="Rectangle-62-Copy-74" fill="#D8D8D8" x="19" y="41" width="2" height="2"></rect>
        <rect id="Rectangle-62-Copy-83" fill="#EEEEEE" x="17" y="41" width="2" height="2"></rect>
        <rect id="Rectangle-62-Copy-91" fill="#EEEEEE" x="7" y="42" width="2" height="2"></rect>
        <rect id="Rectangle-62-Copy-84" fill="#EEEEEE" x="22" y="43" width="2" height="2"></rect>
        <rect id="Rectangle-62-Copy-85" fill="#EEEEEE" x="26" y="42" width="2" height="2"></rect>
        <rect id="Rectangle-62-Copy-86" fill="#EEEEEE" x="30" y="42" width="2" height="2"></rect>
        <rect id="Rectangle-62-Copy-87" fill="#EEEEEE" x="34" y="42" width="2" height="2"></rect>
        <rect id="Rectangle-62-Copy-88" fill="#EEEEEE" x="42" y="43" width="2" height="2"></rect>
        <rect id="Rectangle-62-Copy-89" fill="#EEEEEE" x="47" y="42" width="2" height="2"></rect>
        <rect id="Rectangle-62-Copy-90" fill="#EEEEEE" x="53" y="43" width="2" height="2"></rect>
        <rect id="Rectangle-62-Copy-75" fill="#D8D8D8" x="24" y="40" width="2" height="2"></rect>
        <rect id="Rectangle-62-Copy-76" fill="#D8D8D8" x="28" y="41" width="2" height="2"></rect>
        <rect id="Rectangle-62-Copy-77" fill="#D8D8D8" x="32" y="40" width="2" height="2"></rect>
        <rect id="Rectangle-62-Copy-78" fill="#D8D8D8" x="36" y="42" width="2" height="2"></rect>
        <rect id="Rectangle-62-Copy-79" fill="#D8D8D8" x="40" y="41" width="2" height="2"></rect>
        <rect id="Rectangle-62-Copy-80" fill="#D8D8D8" x="45" y="40" width="2" height="2"></rect>
        <rect id="Rectangle-62-Copy-81" fill="#D8D8D8" x="50" y="41" width="2" height="2"></rect>
        <rect id="Rectangle-62-Copy-82" fill="#D8D8D8" x="54" y="40" width="2" height="2"></rect>
        <rect id="Rectangle-62-Copy-35" fill="#D8D8D8" x="22" y="28" width="2" height="2"></rect>
        <rect id="Rectangle-62-Copy-34" fill="#D8D8D8" x="17" y="27" width="2" height="2"></rect>
        <rect id="Rectangle-62-Copy-33" fill="#D8D8D8" x="11" y="26" width="2" height="2"></rect>
        <rect id="Rectangle-62-Copy-32" fill="#D8D8D8" x="13" y="24" width="2" height="2"></rect>
        <rect id="Rectangle-62-Copy-31" fill="#D8D8D8" x="4" y="26" width="2" height="2"></rect>
        <rect id="Rectangle-62-Copy-30" fill="#D8D8D8" x="3" y="30" width="2" height="2"></rect>
        <rect id="Rectangle-62-Copy-29" fill="#D8D8D8" x="8" y="26" width="2" height="2"></rect>
        <rect id="Rectangle-62-Copy-28" fill="#D8D8D8" x="6" y="28" width="2" height="2"></rect>
        <g id="Uhaul" transform="translate(4.000000, 6.000000)" fill="#F6A623">
            <rect id="Rectangle-1-Copy-13" x="0" y="0" width="2" height="6"></rect>
            <rect id="Rectangle-1-Copy-15" x="1" y="6" width="4" height="2"></rect>
            <rect id="Rectangle-1-Copy-18" x="9" y="3" width="2" height="2"></rect>
            <rect id="Rectangle-1-Copy-14" x="4" y="0" width="2" height="6"></rect>
            <rect id="Rectangle-1-Copy-25" x="21" y="0" width="2" height="6"></rect>
            <rect id="Rectangle-1-Copy-24" x="22" y="6" width="4" height="2"></rect>
            <rect id="Rectangle-1-Copy-27" x="30" y="6" width="2" height="2"></rect>
            <rect id="Rectangle-1-Copy-23" x="25" y="0" width="2" height="6"></rect>
            <rect id="Rectangle-1-Copy-26" x="28" y="0" width="2" height="8"></rect>
            <rect id="Rectangle-1-Copy-21" x="14" y="2" width="2" height="6"></rect>
            <rect id="Rectangle-1-Copy-20" x="15" y="0" width="4" height="2"></rect>
            <rect id="Rectangle-1-Copy-22" x="16" y="4" width="2" height="2"></rect>
            <rect id="Rectangle-1-Copy-19" x="18" y="2" width="2" height="6"></rect>
            <rect id="Rectangle-1-Copy-17" x="7" y="0" width="2" height="8"></rect>
            <rect id="Rectangle-1-Copy-16" x="11" y="0" width="2" height="8"></rect>
        </g>
        <g id="wheel-copy-2" transform="translate(47.000000, 30.000000)">
            <rect id="Rectangle-14" fill="#9B9B9B" x="2" y="2" width="6" height="6"></rect>
            <rect id="Rectangle-1" fill="#000000" x="8" y="5" width="2" height="2"></rect>
            <rect id="Rectangle-1-Copy-4" fill="#000000" x="8" y="3" width="2" height="2"></rect>
            <rect id="Rectangle-1-Copy-8" fill="#000000" x="7" y="1" width="2" height="2"></rect>
            <rect id="Rectangle-1-Copy-12" fill="#000000" x="4" y="4" width="2" height="2"></rect>
            <rect id="Rectangle-1-Copy-9" fill="#000000" x="5" y="0" width="2" height="2"></rect>
            <rect id="Rectangle-1-Copy-10" fill="#000000" x="3" y="0" width="2" height="2"></rect>
            <rect id="Rectangle-1-Copy-11" fill="#000000" x="1" y="1" width="2" height="2"></rect>
            <rect id="Rectangle-1-Copy" fill="#000000" x="5" y="8" width="2" height="2"></rect>
            <rect id="Rectangle-1-Copy-2" fill="#000000" x="0" y="3" width="2" height="2"></rect>
            <rect id="Rectangle-1-Copy-3" fill="#000000" x="0" y="5" width="2" height="2"></rect>
            <rect id="Rectangle-1-Copy-5" fill="#000000" x="1" y="7" width="2" height="2"></rect>
            <rect id="Rectangle-1-Copy-6" fill="#000000" x="3" y="8" width="2" height="2"></rect>
            <rect id="Rectangle-1-Copy-7" fill="#000000" x="7" y="7" width="2" height="2"></rect>
        </g>
    </g>
</svg>