<?xml version="1.0" encoding="UTF-8" standalone="no"?>
<svg width="44px" height="28px" viewBox="0 0 44 28" version="1.1" xmlns="http://www.w3.org/2000/svg" xmlns:xlink="http://www.w3.org/1999/xlink">
    <!-- Generator: Sketch 3.6.1 (26313) - http://www.bohemiancoding.com/sketch -->
    <title>Group 17</title>
    <desc>Created with Sketch.</desc>
    <defs></defs>
    <g id="Page-1" stroke="none" stroke-width="1" fill="none" fill-rule="evenodd">
        <g id="Group-17">
            <path d="M7.4296875,1.53222656 L1.68847656,26.1865234 L17.5478516,26.1865234 L19.9794922,17.1425781 L22.9970703,17.1425781 L26.4492188,25.8701172 L41.09375,25.6103516 L34.6123047,1.92480469 L7.4296875,1.53222656 Z" id="Path-9" fill="#FFFFFF"></path>
            <rect id="Rectangle-1972-Copy-80" fill="#9B9B9B" x="6" y="0" width="31" height="4"></rect>
            <rect id="Rectangle-1972-Copy-81" fill="#9B9B9B" x="5" y="4" width="4" height="4"></rect>
            <rect id="Rectangle-1972-Copy-82" fill="#9B9B9B" x="4" y="8" width="4" height="4"></rect>
            <rect id="Rectangle-1972-Copy-83" fill="#9B9B9B" x="3" y="12" width="4" height="4"></rect>
            <rect id="Rectangle-1972-Copy-84" fill="#9B9B9B" x="2" y="16" width="4" height="4"></rect>
            <rect id="Rectangle-1972-Copy-85" fill="#9B9B9B" x="1" y="20" width="4" height="4"></rect>
            <rect id="Rectangle-1972-Copy-86" fill="#9B9B9B" x="0" y="24" width="16" height="4"></rect>
            <rect id="Rectangle-1972-Copy-95" fill="#9B9B9B" x="18" y="16" width="4" height="4"></rect>
            <rect id="Rectangle-1972-Copy-94" fill="#9B9B9B" x="17" y="20" width="4" height="4"></rect>
            <rect id="Rectangle-1972-Copy-93" fill="#9B9B9B" x="16" y="24" width="4" height="4"></rect>
            <rect id="Rectangle-1972-Copy-92" fill="#9B9B9B" transform="translate(37.000000, 6.000000) scale(-1, 1) translate(-37.000000, -6.000000) " x="35" y="4" width="4" height="4"></rect>
            <rect id="Rectangle-1972-Copy-91" fill="#9B9B9B" transform="translate(38.000000, 10.000000) scale(-1, 1) translate(-38.000000, -10.000000) " x="36" y="8" width="4" height="4"></rect>
            <rect id="Rectangle-1972-Copy-90" fill="#9B9B9B" transform="translate(39.000000, 14.000000) scale(-1, 1) translate(-39.000000, -14.000000) " x="37" y="12" width="4" height="4"></rect>
            <rect id="Rectangle-1972-Copy-89" fill="#9B9B9B" transform="translate(40.000000, 18.000000) scale(-1, 1) translate(-40.000000, -18.000000) " x="38" y="16" width="4" height="4"></rect>
            <rect id="Rectangle-1972-Copy-88" fill="#9B9B9B" transform="translate(41.000000, 22.000000) scale(-1, 1) translate(-41.000000, -22.000000) " x="39" y="20" width="4" height="4"></rect>
            <rect id="Rectangle-1972-Copy-87" fill="#9B9B9B" transform="translate(36.000000, 26.000000) scale(-1, 1) translate(-36.000000, -26.000000) " x="28" y="24" width="16" height="4"></rect>
            <rect id="Rectangle-1972-Copy-98" fill="#9B9B9B" transform="translate(24.000000, 18.000000) scale(-1, 1) translate(-24.000000, -18.000000) " x="22" y="16" width="4" height="4"></rect>
            <rect id="Rectangle-1972-Copy-97" fill="#9B9B9B" transform="translate(25.000000, 22.000000) scale(-1, 1) translate(-25.000000, -22.000000) " x="23" y="20" width="4" height="4"></rect>
            <rect id="Rectangle-1972-Copy-96" fill="#9B9B9B" transform="translate(26.000000, 26.000000) scale(-1, 1) translate(-26.000000, -26.000000) " x="24" y="24" width="4" height="4"></rect>
        </g>
    </g>
</svg>